<svg id="e0ZYvFeIRj21" xmlns="http://www.w3.org/2000/svg" xmlns:xlink="http://www.w3.org/1999/xlink" viewBox="0 0 462 891" shape-rendering="geometricPrecision" text-rendering="geometricPrecision"><style><![CDATA[#e0ZYvFeIRj217_to {animation: e0ZYvFeIRj217_to__to 3000ms linear infinite normal forwards}@keyframes e0ZYvFeIRj217_to__to { 0% {transform: translate(22.512800px,-0.807039px)} 6.666667% {transform: translate(4.612807px,-30.390239px)} 13.333333% {transform: translate(33.037807px,-11.372468px)} 20% {transform: translate(22.510000px,-0.810000px)} 100% {transform: translate(22.510000px,-0.810000px)}}]]></style><g id="e0ZYvFeIRj22" transform="matrix(0.92325728964263 0 0 0.92325728964263 17.73831041854501 34.18792205560896)"><g id="e0ZYvFeIRj23" transform="matrix(1 0 0 1 0.77718100000000 0.80703900000000)"><g id="e0ZYvFeIRj24" transform="matrix(1 0 0 1 0 353.84300000000002)"><path id="e0ZYvFeIRj25" d="M392.872819,339.350000C330.352819,536.200000,294.892819,535.514049,230.372819,535.514049C165.852819,535.514049,133.742819,539.020000,67.862819,339.350000C21.792819,199.710000,21.212819,23.440000,21.212819,23.440000C22.102819,19.200000,23.312819,16.410000,25.662819,12.840000C29.952819,6.330000,36.422819,1.910000,43.172819,0C43.172819,0,37.672819,8.360000,106.862819,26.780000C119.472819,30.130000,138.832819,34.310000,158.382819,36.380000C193.902819,40.150000,230.372819,40.410000,230.372819,40.410000C230.372819,40.410000,266.832819,40.150000,302.352819,36.380000C321.902819,34.310000,341.272819,30.130000,353.882819,26.780000C423.062819,8.360000,417.562819,0,417.562819,0C424.312819,1.900000,430.792819,6.330000,435.072819,12.840000C437.422819,16.410000,438.642819,19.200000,439.532819,23.440000C439.532819,23.440000,437.382819,199.210000,392.872819,339.350000Z" fill="rgb(246,246,246)" stroke="none" stroke-width="1"/><path id="e0ZYvFeIRj26" d="M371.562819,121.820000C391.772819,80.370000,398.012819,58,416.862819,32.820000C419.362819,29.480000,422.032819,26.090000,425.682819,24.050000C429.602819,21.860000,434.462819,21.640000,438.682819,23.120000C441.232819,24.010000,443.552819,25.520000,445.302819,27.580000C448.142819,30.920000,449.452819,35.270000,450.622819,39.500000C450.872819,40.400000,451.112819,41.300000,451.352819,42.200000C461.542819,80.480000,463.372819,122.140000,457.092819,161.320000C454.022819,180.490000,448.482819,199.360000,439.912819,216.810000C431.232819,234.470000,419.732819,248.440000,405.102819,261.450000C386.682819,277.820000,383.062819,285.410000,363.042819,299.740000C356.742819,304.250000,341.692819,316.050000,322.532819,322.570000C247.192819,343.480000,233.902819,297.600000,281.812819,243.170000C297.842819,224.960000,302.962819,217.860000,312.812819,204.630000C331.722819,179.220000,361.452819,142.540000,371.562819,121.820000Z" fill="rgb(230,229,228)" stroke="none" stroke-width="1"/><path id="e0ZYvFeIRj27" d="M89.162819,121.820000C68.952819,80.370000,62.712819,58,43.862819,32.820000C41.362819,29.480000,38.692819,26.090000,35.042819,24.050000C31.122819,21.860000,26.262819,21.640000,22.042819,23.120000C19.492819,24.010000,17.172819,25.520000,15.422819,27.580000C12.582819,30.920000,11.272819,35.270000,10.102819,39.500000C9.852819,40.400000,9.612819,41.300000,9.372819,42.200000C-0.817181,80.480000,-2.647181,122.140000,3.632819,161.320000C6.702819,180.490000,12.242819,199.360000,20.812819,216.810000C29.492819,234.470000,40.992819,248.440000,55.622819,261.450000C74.042819,277.820000,77.662819,285.410000,97.682819,299.740000C103.982819,304.250000,119.032819,316.050000,138.192819,322.570000C213.532819,343.480000,226.822819,297.600000,178.912819,243.170000C162.882819,224.960000,157.762819,217.860000,147.912819,204.630000C129.012819,179.220000,99.272819,142.540000,89.162819,121.820000Z" fill="rgb(230,229,228)" stroke="none" stroke-width="1"/><g id="e0ZYvFeIRj28" transform="matrix(1 0 0 1 88.22280000000001 71.34999999999999)"><circle id="e0ZYvFeIRj29" r="144.840000" transform="matrix(1 0 0 1 145.75999999999999 145.41999999999999)" fill="rgb(178,13,40)" stroke="none" stroke-width="1"/><ellipse id="e0ZYvFeIRj210" rx="135.440000" ry="141.190000" transform="matrix(1 0 0 1 155.16000000000000 149.06999999999999)" fill="rgb(197,16,33)" stroke="none" stroke-width="1"/><path id="e0ZYvFeIRj211" d="M223.590000,225.500000C205.580000,224.940000,184.970000,203.190000,184.959991,185.360000C184.950000,174.190000,193.080000,169.260000,203.070000,169.560000C213.560000,169.880000,222.140000,174.910000,228.850000,182.430000C240.770000,195.620000,252.180000,226.550000,223.590000,225.500000Z" fill="rgb(253,252,252)" stroke="none" stroke-width="1"/><path id="e0ZYvFeIRj212" d="M213.450000,116.600000C204.800000,116.600000,196.160000,116.550000,187.510000,116.630000C184.490000,116.660000,182.530000,116.570000,182.700000,112.370000C183.620000,70.160000,242.920000,71.140000,245.040000,111.200000C245.330000,115.350000,244.570000,116.860000,240.130000,116.700000C231.240000,116.370000,222.340000,116.600000,213.450000,116.600000Z" fill="rgb(253,252,252)" stroke="none" stroke-width="1"/><rect id="e0ZYvFeIRj213" width="99.710000" height="27.980000" rx="0" ry="0" transform="matrix(1 0 0 1 52.77000000000000 203.59000000000000)" fill="rgb(253,252,252)" stroke="none" stroke-width="1"/><rect id="e0ZYvFeIRj214" width="56.870000" height="88.230000" rx="0" ry="0" transform="matrix(1 0 0 1 95.62000000000000 116.70999999999999)" fill="rgb(253,252,252)" stroke="none" stroke-width="1"/><path id="e0ZYvFeIRj215" d="M417.372819,356.102961C415.082819,359.042961,410.432819,361.132961,406.542819,363.262961C387.792819,373.562961,342.992819,384.072961,322.532819,387.552961C297.442819,391.812961,253.502819,394.252961,230.372819,394.252961C207.232819,394.252961,163.292819,391.812961,138.212819,387.552961C117.752819,384.072961,72.952819,373.562961,54.202819,363.262961C50.312819,361.132961,45.662819,359.042961,43.362819,356.102961C40.772819,352.802961,45.672819,353.522961,48.412819,353.602961C53.892819,353.772961,60.432819,355.612961,65.832819,356.572961C76.782819,358.522961,86.072819,360.422961,96.952819,361.972961C118.782819,365.092961,125.222819,366.262961,141.692819,367.762961C148.092819,368.342961,158.412819,369.712961,169.092819,370.312961C189.432819,371.462961,192.112819,371.862961,230.372819,371.862961C268.632819,371.862961,271.312819,371.462961,291.642819,370.312961C302.332819,369.712961,312.652819,368.342961,319.052819,367.762961C335.522819,366.262961,341.952819,365.092961,363.792819,361.972961C374.662819,360.422961,383.952819,358.512961,394.912819,356.572961C400.312819,355.612961,406.842819,353.772961,412.332819,353.602961C415.072819,353.522961,419.962819,352.802961,417.372819,356.102961Z" transform="matrix(1 0 0 1 -91.67326896000077 -423.04518509999997)" fill="rgb(216,219,225)" stroke="none" stroke-width="1"/><rect id="e0ZYvFeIRj216" width="29.590000" height="91.190000" rx="0" ry="0" transform="matrix(1 0 0 1 122.90000000000001 37.55000000000000)" fill="rgb(253,252,252)" stroke="none" stroke-width="1"/></g></g><g id="e0ZYvFeIRj217_to" transform="translate(22.512800,-0.807039)"><g id="e0ZYvFeIRj217" transform="translate(0,0)"><g id="e0ZYvFeIRj218"><path id="e0ZYvFeIRj219" d="M267.880000,22.592961C229.550000,22.642961,191.210000,22.702961,152.880000,22.752961C153.120000,19.312961,153.140000,15.832961,153.660000,12.442961C154.810000,4.942961,159.820000,0.132961,166.790000,0.102961C195.860000,-0.007039,224.930000,-0.037039,254,0.052961C261.390000,0.072961,267.140000,6.362961,267.630000,14.422961C267.790000,17.142961,267.800000,19.872961,267.880000,22.592961Z" fill="rgb(215,219,227)" stroke="none" stroke-width="1"/><path id="e0ZYvFeIRj220" d="M379.770000,231.262961L379.770000,231.262961C399.330000,231.262961,415.330000,215.262961,415.330000,195.702961L415.330000,148.822961C415.330000,129.262961,399.330000,113.262961,379.770000,113.262961L379.770000,113.262961C360.210000,113.262961,344.210000,129.262961,344.210000,148.822961L344.210000,195.702961C344.210000,215.262961,360.210000,231.262961,379.770000,231.262961Z" fill="rgb(217,220,226)" stroke="none" stroke-width="1"/><path id="e0ZYvFeIRj221" d="M35.560000,232.982961L35.560000,232.982961C55.120000,232.982961,71.120000,216.982961,71.120000,197.422961L71.120000,150.542961C71.120000,130.982961,55.120000,114.982961,35.560000,114.982961L35.560000,114.982961C16,114.982961,-0,130.982961,-0,150.542961L-0,197.422961C-0,216.982961,16.010000,232.982961,35.560000,232.982961Z" fill="rgb(217,220,226)" stroke="none" stroke-width="1"/><path id="e0ZYvFeIRj222" d="M289.720000,346.772961L124.080000,346.772961C68.920000,346.772961,23.800000,301.642961,23.800000,246.492961L23.800000,122.032961C23.800000,66.872961,68.930000,21.752961,124.080000,21.752961L289.730000,21.752961C344.890000,21.752961,390.010000,66.882961,390.010000,122.032961L390.010000,246.492961C390,301.642961,344.880000,346.772961,289.720000,346.772961Z" transform="matrix(1 0 0 1 0.80499946000009 0)" fill="rgb(244,244,245)" stroke="none" stroke-width="1"/><path id="e0ZYvFeIRj223" d="M255.540000,281.642961L155.920000,281.642961C152.530000,281.642961,149.760000,284.412961,149.760000,287.802961L149.760000,320.892961C149.760000,324.282961,152.530000,327.052961,155.920000,327.052961L255.540000,327.052961C258.930000,327.052961,261.700000,324.282961,261.700000,320.892961L261.700000,287.802961C261.700000,284.412961,258.930000,281.642961,255.540000,281.642961Z" fill="rgb(230,229,228)" stroke="none" stroke-width="1"/><rect id="e0ZYvFeIRj224" width="111.910000" height="31.750000" rx="0" ry="0" transform="matrix(1 0 0 1 147.45000000000002 314.82299999999998)" fill="rgb(216,219,226)" stroke="none" stroke-width="1"/><path id="e0ZYvFeIRj225" d="M282.140000,226.562961L133.280000,226.562961C97.610000,226.562961,68.420000,197.372961,68.420000,161.702961L68.420000,135.172961C68.420000,99.502961,97.610000,70.312961,133.280000,70.312961L282.140000,70.312961C317.810000,70.312961,347,99.502961,347,135.172961L347,161.702961C347,197.372961,317.810000,226.562961,282.140000,226.562961Z" fill="rgb(43,46,53)" stroke="none" stroke-width="1"/><path id="e0ZYvFeIRj226" d="M282.280000,255.012961L133.420000,255.012961C97.750000,255.012961,68.560000,225.822961,68.560000,190.152961L68.560000,163.622961C68.560000,127.952961,97.750000,98.762961,133.420000,98.762961L282.280000,98.762961C317.950000,98.762961,347.140000,127.952961,347.140000,163.622961L347.140000,190.152961C347.140000,225.822961,317.950000,255.012961,282.280000,255.012961Z" fill="rgb(57,60,68)" stroke="none" stroke-width="1"/><path id="e0ZYvFeIRj227" d="M267.250000,125.122961C257.430000,116.542961,246.120000,110.822961,233.540000,107.472961C232.300000,107.142961,229.600000,107.792961,230.170000,105.062961C230.670000,102.702961,232.540000,102.292961,234.830000,102.552961C242.520000,103.442961,249.560000,106.422961,256.830000,108.782961C274.530000,114.542961,281.810000,128.772961,287.480000,144.712961C295.340000,166.802961,299.740000,189.542961,301.530000,212.862961C301.710000,215.232961,301.090000,216.942961,299.420000,218.622961C285.040000,233.062961,267.430000,240.282961,247.370000,242.162961C245.470000,242.342961,244.180000,241.762961,243.120000,240.252961C241.870000,238.482961,240.540000,236.782961,239.270000,235.042961C238.800000,234.402961,238.380000,233.732961,237.790000,232.872961C250.290000,227.872961,261.830000,221.782961,270.830000,211.772961C271.020000,211.512961,271.200000,211.242961,271.390000,210.982961C271,211.012961,270.610000,211.042961,270.220000,211.072961C226.900000,235.932961,183.600000,236.012961,140.310000,210.992961C139.900000,210.742961,139.490000,210.502961,139.080000,210.252961C138.730000,210.142961,138.380000,210.032961,138.030000,209.922961C137.860000,210.532961,138.300000,210.622961,138.720000,210.722961C139.040000,211.072961,139.350000,211.412961,139.670000,211.762961C148.750000,221.662961,160.220000,227.892961,172.860000,232.892961C170.920000,235.542961,169.150000,237.912961,167.450000,240.322961C166.380000,241.842961,165.050000,242.342961,163.170000,242.162961C143.100000,240.252961,125.460000,233.052961,111.140000,218.502961C109.820000,217.152961,108.850000,215.882961,109.020000,213.752961C111.340000,184.002961,117.200000,155.182961,130.390000,128.112961C133.360000,122.012961,137.410000,117.502961,143.330000,114.212961C152.570000,109.072961,162.190000,105.112961,172.570000,103.072961C174.040000,102.782961,175.550000,102.732961,177.030000,102.512961C179.210000,102.182961,180.210000,103.692961,180.520000,105.292961C180.910000,107.292961,178.800000,107.012961,177.730000,107.272961C165.390000,110.332961,154.450000,116.112961,144.630000,124.092961C143.930000,124.662961,142.850000,125.012961,142.900000,126.662961C150.090000,123.332961,157,119.752961,164.400000,117.412961C197.050000,107.102961,229.010000,108.582961,260.200000,123.092961C262.300000,124.072961,264.440000,124.972961,266.570000,125.912961C267.200000,126.742961,267.970000,127.032961,268.940000,126.532961C268.960000,126.752961,268.990000,126.962961,269.010000,127.182961C269.040000,127.102961,269.120000,127.002961,269.100000,126.942961C269.040000,126.812961,268.930000,126.712961,268.850000,126.602961C268.300000,126.112961,267.780000,125.612961,267.250000,125.122961ZM192.020000,181.182961C192.100000,169.772961,183.120000,161.482961,173.360000,163.952961C165.430000,165.962961,160.140000,175.392961,161.770000,184.622961C163.250000,193.012961,170.560000,199.262961,178.040000,198.552961C185.950000,197.792961,191.960000,190.322961,192.020000,181.182961ZM249.050298,180.922961C248.990000,169.602961,239.770000,161.362961,230.090000,164.002961C222.160000,166.162961,217.180000,175.392961,218.810000,184.872961C220.200000,192.922961,227.470000,199.162961,234.760000,198.552961C242.860000,197.882961,249.100000,190.192961,249.050298,180.922961Z" transform="matrix(1 0 0 1 0 1.64966708499998)" fill="rgb(139,157,253)" stroke="none" stroke-width="1"/></g></g></g></g></g></svg>